<!-- <svg xlink:href="data:image/png;base64" xmlns="http://www.w3.org/2000/svg" xmlns:xlink="http://www.w3.org/1999/xlink" width="8.306in" height="7.486in">
    <path fill-rule="evenodd" fill="rgb(162, 64, 64)" d="M253.305,269.702 C250.349,266.794 229.661,272.463 195.323,300.815 C176.405,317.485 151.200,319.754 141.207,317.531 C124.710,313.873 109.104,296.533 104.362,281.614 C99.286,265.653 101.581,249.624 109.374,234.653 C112.702,228.264 128.103,201.166 161.253,193.168 C175.114,189.830 189.160,189.334 203.388,191.683 L195.964,230.663 C195.677,230.575 179.120,225.111 161.088,232.870 C147.242,238.827 136.966,254.202 138.754,264.045 C139.949,270.595 146.718,277.423 151.880,277.531 C150.274,277.494 164.170,281.311 184.716,266.167 C187.584,264.446 242.619,222.766 271.690,251.317 "/>
    <path fill-rule="evenodd" fill="rgb(162, 64, 64)" d="M245.839,363.630 C238.746,365.009 231.269,364.770 224.918,363.073 L216.327,396.484 C228.522,398.925 240.800,398.738 253.158,395.927 C282.234,390.186 298.674,363.156 302.310,357.594 C306.702,350.865 309.762,344.046 311.483,337.125 C311.209,348.474 283.813,379.587 245.839,363.630 Z"/>
    <path fill-rule="evenodd" fill="rgb(0, 91, 127)" d="M166.405,494.951 C162.763,503.483 157.839,510.856 151.628,517.067 C149.751,518.943 147.768,520.683 145.702,522.317 C146.346,522.653 146.446,522.845 145.825,522.847 C123.134,542.699 67.260,547.469 38.044,516.125 C34.615,511.649 31.691,506.756 29.268,501.453 C26.845,496.145 24.965,490.593 23.625,484.793 C22.286,478.989 21.614,473.108 21.610,467.142 C21.604,457.198 23.381,447.877 26.937,439.178 C30.494,430.480 35.379,422.940 41.590,416.565 C47.801,410.187 55.046,405.139 63.333,401.415 C71.616,397.691 80.397,395.835 89.680,395.838 C99.128,395.841 100.328,395.526 100.570,395.567 C100.564,395.564 100.558,395.761 100.551,396.051 C101.339,395.967 102.290,395.896 103.449,395.847 C112.895,395.852 121.803,397.761 130.176,401.581 C138.545,405.397 145.800,410.540 151.938,417.007 C158.071,423.475 162.924,431.017 166.495,439.639 C170.062,448.256 171.851,457.456 171.857,467.236 C171.863,477.180 170.043,486.416 166.405,494.951 ZM78.270,435.357 C72.041,437.505 66.671,441.274 62.169,446.658 C57.662,452.039 55.414,458.874 55.419,467.163 C55.423,473.129 56.584,478.972 58.910,484.691 C61.233,490.410 64.300,494.763 68.116,497.748 C71.409,498.832 75.036,499.723 78.310,500.423 L78.270,435.357 ZM132.070,448.194 C128.089,442.971 123.278,439.029 117.644,436.377 L117.683,498.028 C123.313,495.545 128.120,491.653 132.094,486.353 C136.068,481.050 138.053,474.673 138.048,467.215 C138.043,459.757 136.051,453.417 132.070,448.194 ZM20.450,447.555 C21.402,406.824 30.221,373.146 15.798,348.114 C1.376,323.082 -10.845,271.531 15.711,208.901 C15.612,209.078 15.773,247.147 15.735,247.147 C-7.177,261.452 2.629,366.991 98.435,391.001 C69.713,388.505 25.846,406.177 20.450,447.555 Z"/>
    <path fill-rule="evenodd" fill="rgb(0, 91, 127)" d="M425.839,221.619 C406.561,239.994 386.906,251.477 381.999,269.702 C377.092,287.928 358.901,317.385 317.652,334.049 C317.780,334.013 335.312,316.354 335.330,316.371 C352.543,320.347 396.820,267.066 363.614,211.719 C375.744,226.140 404.206,238.240 425.839,221.619 Z"/>
    <path fill-rule="evenodd" fill="rgb(255, 255, 255)" d="M254.840,271.232 L259.436,275.828 C254.879,276.301 250.459,277.380 246.178,279.069 C241.895,280.759 238.105,283.252 234.805,286.552 C230.404,290.953 227.086,295.962 224.847,301.578 C222.608,307.198 221.470,312.932 221.429,318.784 C221.391,324.638 222.490,330.415 224.729,336.109 C226.968,341.806 230.327,346.892 234.805,351.370 C239.206,355.771 244.213,359.091 249.831,361.329 C255.450,363.570 261.184,364.708 267.038,364.746 C272.890,364.787 278.646,363.667 284.303,361.388 C289.958,359.110 295.027,355.731 299.506,351.252 C302.805,347.953 305.293,344.157 306.976,339.867 C308.656,335.576 309.683,331.105 310.061,326.452 L314.826,331.218 L332.504,313.540 L272.518,253.554 L254.840,271.232 ZM277.650,338.471 C274.785,339.613 271.901,340.187 269.001,340.193 C266.099,340.200 263.217,339.635 260.357,338.502 C257.495,337.372 254.930,335.668 252.660,333.398 C250.391,331.129 248.688,328.564 247.557,325.703 C246.425,322.843 245.860,319.961 245.867,317.059 C245.872,314.159 246.447,311.275 247.589,308.410 C248.730,305.545 250.439,302.974 252.719,300.694 C254.917,298.496 257.451,296.824 260.317,295.682 C263.182,294.540 266.084,293.947 269.025,293.901 C271.964,293.857 274.866,294.402 277.727,295.533 C280.587,296.665 283.154,298.367 285.422,300.635 C287.693,302.906 289.394,305.473 290.527,308.333 C291.658,311.194 292.203,314.096 292.158,317.035 C292.112,319.976 291.519,322.878 290.378,325.743 C289.236,328.608 287.562,331.140 285.364,333.339 C283.084,335.619 280.515,337.329 277.650,338.471 Z"/>
    <path fill-rule="evenodd" fill="rgb(255, 255, 255)" d="M396.848,110.603 C397.092,110.955 396.059,109.156 394.154,107.251 C389.865,102.962 384.982,99.727 379.504,97.542 C374.026,95.360 368.416,94.267 362.670,94.267 C356.925,94.267 351.237,95.398 345.607,97.657 C339.977,99.919 334.863,103.344 330.267,107.941 C325.746,112.461 322.319,117.537 319.983,123.166 C317.647,128.798 316.403,134.523 316.249,140.344 C316.096,146.166 317.073,151.894 319.179,157.522 C321.285,163.154 324.522,168.151 328.888,172.517 C331.932,175.309 332.485,175.013 332.501,174.950 C332.503,174.957 332.512,174.956 332.528,174.947 C332.392,175.295 396.848,110.603 396.848,110.603 ZM357.500,117.478 C361.789,116.866 365.812,117.287 369.565,118.742 L341.068,147.238 C339.689,143.410 339.287,139.367 339.862,135.116 C340.436,130.864 342.447,127.015 345.894,123.568 C349.341,120.121 353.209,118.092 357.500,117.478 Z"/>
    <path fill-rule="evenodd" fill="rgb(255, 255, 255)" d="M365.735,208.184 C365.828,208.315 365.532,209.164 369.900,213.529 C374.193,217.819 379.113,221.018 384.666,223.124 C390.221,225.232 395.907,226.246 401.729,226.169 C407.550,226.093 413.297,224.867 418.965,222.492 C424.633,220.117 429.766,216.632 434.362,212.036 C437.120,209.278 439.529,206.251 441.594,202.951 C443.657,199.653 445.355,196.220 446.689,192.649 C448.021,189.080 448.932,185.469 449.416,181.817 C449.903,178.167 449.908,174.575 449.434,171.034 L427.008,176.415 C427.392,179.557 426.798,182.984 425.227,186.699 C423.658,190.416 421.493,193.651 418.735,196.409 C414.904,200.240 410.702,202.358 406.130,202.762 C401.557,203.170 397.330,202.430 393.456,200.545 L439.992,154.009 C439.303,153.014 438.536,152.018 437.694,151.021 C436.850,150.026 436.010,149.107 435.166,148.263 C430.877,143.974 429.903,143.908 430.082,143.837 C429.897,143.818 365.784,208.316 365.735,208.184 Z"/>
    <path fill-rule="evenodd" fill="rgb(255, 255, 255)" d="M580.700,65.344 L548.067,32.711 C546.383,31.027 544.487,29.705 542.380,28.747 C540.274,27.790 538.166,27.215 536.060,27.023 C533.952,26.833 531.923,27.063 529.970,27.712 C528.016,28.366 526.311,29.418 524.857,30.872 C523.401,32.328 522.366,34.052 521.754,36.043 C521.140,38.036 520.930,40.084 521.122,42.190 C521.313,44.298 521.889,46.404 522.846,48.510 C523.805,50.618 525.164,52.552 526.925,54.313 L559.328,86.716 L542.092,103.952 L509.459,71.319 C507.775,69.635 505.878,68.315 503.766,67.360 C501.657,66.407 499.545,65.836 497.434,65.649 C495.322,65.462 493.287,65.699 491.326,66.356 C489.367,67.015 487.654,68.075 486.191,69.538 C484.726,71.003 483.685,72.734 483.065,74.732 C482.446,76.730 482.229,78.786 482.415,80.897 C482.539,82.293 482.847,83.689 483.305,85.084 C484.511,86.785 485.629,88.225 486.466,89.062 L521.724,124.320 L520.605,125.439 L520.605,125.439 L503.369,142.675 L503.369,142.675 L503.074,142.970 L471.149,111.044 C469.464,109.360 467.511,108.096 465.288,107.252 C463.068,106.410 460.807,105.988 458.509,105.988 C456.211,105.988 450.065,106.884 444.931,112.017 C439.797,117.151 335.894,221.467 335.676,221.467 C335.458,221.467 327.311,231.086 335.676,246.976 L367.372,278.672 L350.136,295.908 L223.741,169.513 L240.977,152.277 L305.631,217.376 C305.985,217.286 512.068,10.940 517.763,5.244 C524.882,0.973 525.628,0.026 534.734,1.002 C534.686,1.049 534.587,1.158 534.452,1.308 C535.555,1.245 536.665,1.235 537.783,1.284 C542.112,1.476 546.362,2.473 550.538,4.272 C554.712,6.073 558.524,8.696 561.971,12.143 L597.936,48.108 L580.700,65.344 ZM501.525,40.116 C501.680,40.139 501.835,40.154 501.991,40.180 C501.978,39.984 501.977,39.786 501.968,39.589 C501.820,39.765 501.672,39.941 501.525,40.116 Z"/>
</svg> -->
<!-- <svg xlink:href="data:image/png;base64" xmlns="http://www.w3.org/2000/svg" xmlns:xlink="http://www.w3.org/1999/xlink" width="2.153in" height="2.028in">
<path fill-rule="evenodd" fill="rgb(0, 91, 127)" d="M153.461,112.660 C153.073,114.106 152.595,115.515 152.047,116.896 C152.457,116.879 152.559,116.944 152.256,117.120 C146.771,133.216 120.824,151.303 97.714,144.233 C94.777,143.013 91.969,141.448 89.289,139.541 C86.609,137.632 84.125,135.450 81.835,132.995 C79.544,130.537 77.557,127.854 75.872,124.941 C73.065,120.085 71.304,115.031 70.589,109.779 C69.873,104.527 70.133,99.467 71.369,94.601 C72.604,89.734 74.719,85.225 77.717,81.069 C80.712,76.914 84.478,73.531 89.013,70.915 C93.629,68.252 94.127,67.760 94.257,67.711 C94.252,67.712 94.306,67.811 94.386,67.958 C94.752,67.691 95.176,67.395 95.741,67.036 C100.357,64.375 105.247,62.795 110.414,62.300 C115.578,61.803 120.572,62.270 125.394,63.698 C130.214,65.127 134.711,67.443 138.887,70.647 C143.060,73.850 146.528,77.839 149.289,82.615 C152.096,87.471 153.812,92.495 154.442,97.690 C155.069,102.885 154.743,107.875 153.461,112.660 ZM92.393,115.417 C94.077,118.330 96.292,120.856 99.041,122.994 C101.789,125.132 104.514,126.393 107.220,126.775 C109.135,126.376 111.157,125.788 112.954,125.207 L94.585,93.436 C92.148,96.242 90.588,99.597 89.907,103.497 C89.223,107.396 90.053,111.369 92.393,115.417 ZM132.769,92.139 C130.663,88.498 127.902,85.963 124.484,84.534 C121.067,83.106 117.605,82.537 114.105,82.830 L131.510,112.934 C133.561,110.133 134.811,106.876 135.257,103.167 C135.703,99.455 134.874,95.781 132.769,92.139 ZM69.782,115.700 C58.760,95.536 53.571,76.599 39.466,68.439 C25.362,60.280 4.855,38.545 0.164,0.464 C0.165,0.578 10.980,19.128 10.961,19.138 C3.804,32.588 38.357,81.374 91.926,66.083 C77.193,72.964 60.749,93.967 69.782,115.700 Z"/>
</svg> -->
<svg xmlns="http://www.w3.org/2000/svg" 
    xmlns:xlink="http://www.w3.org/1999/xlink" width="4.25in" height="1.903in">
    <path fill-rule="evenodd" fill="rgb(162, 64, 64)" d="M70.313,76.672 C70.293,74.238 59.355,68.005 33.336,65.521 C18.567,64.588 7.164,55.069 3.940,49.999 C-1.389,41.634 -0.669,27.960 3.554,19.801 C8.072,11.070 15.677,5.370 25.124,2.391 C29.157,1.121 46.795,-3.734 63.873,6.705 C71.011,11.072 77.046,16.695 81.976,23.576 L62.717,36.672 C62.635,36.516 58.031,27.377 47.327,23.113 C39.108,19.839 28.462,21.956 25.119,26.783 C22.897,29.997 22.872,35.640 24.970,37.827 C24.319,37.146 28.502,44.497 43.314,46.739 C45.218,47.215 85.358,52.758 85.574,76.672 "/>
    <path fill-rule="evenodd" fill="rgb(162, 64, 64)" d="M28.232,112.556 C24.716,110.184 21.712,106.982 19.781,103.642 L2.349,113.943 C6.397,120.017 11.570,125.036 17.866,128.998 C32.316,138.682 50.357,134.288 54.174,133.488 C58.790,132.518 62.890,130.958 66.476,128.799 C61.653,133.396 37.370,134.939 28.232,112.556 Z"/>
    <path fill-rule="evenodd" fill="rgb(0, 91, 127)" d="M161.875,128.323 C146.248,127.948 133.325,124.556 123.724,130.083 C114.124,135.611 94.349,140.287 70.313,130.083 C70.381,130.121 84.987,130.069 84.987,130.083 C90.481,138.878 130.970,135.141 140.159,98.389 C139.208,109.408 145.998,126.242 161.875,128.323 Z"/>
    <path fill-rule="evenodd" fill="rgb(255, 255, 255)" d="M70.316,77.944 L70.316,81.759 C68.228,80.064 65.946,78.678 63.468,77.602 C60.989,76.526 58.381,75.988 55.642,75.988 C51.989,75.988 48.533,76.689 45.273,78.091 C42.011,79.494 39.159,81.401 36.714,83.813 C34.268,86.227 32.327,89.080 30.893,92.373 C29.458,95.667 28.741,99.171 28.741,102.889 C28.741,106.542 29.441,109.998 30.844,113.258 C32.246,116.520 34.153,119.372 36.567,121.817 C38.979,124.263 41.832,126.187 45.126,127.589 C48.419,128.991 51.925,129.692 55.642,129.692 C58.381,129.692 60.989,129.149 63.468,128.067 C65.946,126.984 68.228,125.555 70.316,123.780 L70.316,127.736 L84.989,127.736 L84.989,77.944 L70.316,77.944 ZM51.876,115.317 C50.213,114.601 48.778,113.643 47.572,112.442 C46.364,111.240 45.403,109.810 44.686,108.153 C43.968,106.496 43.610,104.724 43.610,102.840 C43.610,100.957 43.968,99.185 44.686,97.528 C45.403,95.872 46.364,94.441 47.572,93.239 C48.778,92.038 50.213,91.080 51.876,90.364 C53.539,89.649 55.315,89.291 57.207,89.291 C59.032,89.291 60.778,89.649 62.441,90.364 C64.104,91.080 65.554,92.038 66.794,93.239 C68.032,94.441 69.010,95.872 69.729,97.528 C70.446,99.185 70.805,100.957 70.805,102.840 C70.805,104.724 70.446,106.496 69.729,108.153 C69.010,109.810 68.032,111.240 66.794,112.442 C65.554,113.643 64.104,114.601 62.441,115.317 C60.778,116.032 59.032,116.388 57.207,116.388 C55.315,116.388 53.539,116.032 51.876,115.317 Z"/>
    <path fill-rule="evenodd" fill="rgb(255, 255, 255)" d="M195.917,70.216 C195.873,70.463 196.191,69.288 196.191,67.707 C196.191,64.147 195.507,60.777 194.140,57.597 C192.772,54.418 190.897,51.636 188.513,49.251 C186.128,46.867 183.298,44.976 180.024,43.577 C176.749,42.179 173.205,41.478 169.390,41.478 C165.637,41.478 162.108,42.162 158.803,43.529 C155.496,44.897 152.603,46.757 150.124,49.108 C147.644,51.461 145.672,54.244 144.210,57.454 C142.747,60.665 142.017,64.083 142.017,67.707 C142.121,70.129 142.473,70.236 142.506,70.216 C142.504,70.220 142.508,70.223 142.518,70.226 C142.318,70.314 195.917,70.216 195.917,70.216 ZM176.734,56.739 C178.768,58.265 180.263,60.109 181.216,62.270 L157.563,62.270 C158.579,60.109 160.090,58.265 162.093,56.739 C164.096,55.212 166.528,54.449 169.390,54.449 C172.251,54.449 174.698,55.212 176.734,56.739 Z"/>
    <path fill-rule="evenodd" fill="rgb(255, 255, 255)" d="M142.506,97.802 C142.491,97.895 142.015,98.124 142.017,101.749 C142.018,105.311 142.732,108.680 144.163,111.859 C145.593,115.039 147.532,117.820 149.981,120.205 C152.428,122.589 155.322,124.465 158.660,125.832 C161.998,127.198 165.575,127.882 169.390,127.882 C171.679,127.882 173.935,127.626 176.161,127.113 C178.386,126.601 180.516,125.881 182.552,124.953 C184.586,124.024 186.462,122.903 188.179,121.589 C189.896,120.276 191.389,118.787 192.662,117.121 L181.121,110.047 C179.977,111.510 178.307,112.686 176.114,113.576 C173.920,114.467 171.679,114.911 169.390,114.911 C166.209,114.911 163.587,114.047 161.521,112.317 C159.454,110.588 158.007,108.527 157.181,106.136 L195.809,106.136 C195.936,105.438 196.031,104.706 196.095,103.943 C196.158,103.180 196.191,102.450 196.191,101.749 C196.191,98.189 195.814,97.757 195.917,97.802 C195.849,97.717 142.472,97.877 142.506,97.802 Z"/>
    <path fill-rule="evenodd" fill="rgb(255, 255, 255)" d="M291.005,127.736 L291.005,100.649 C291.005,99.251 290.766,97.915 290.289,96.643 C289.813,95.372 289.176,94.258 288.382,93.305 C287.586,92.351 286.649,91.604 285.568,91.063 C284.486,90.524 283.342,90.253 282.135,90.253 C280.926,90.253 279.782,90.539 278.701,91.111 C277.619,91.683 276.682,92.446 275.888,93.400 C275.092,94.354 274.457,95.467 273.980,96.738 C273.503,98.011 273.265,99.377 273.265,100.839 L273.265,127.736 L258.958,127.736 L258.958,100.649 C258.958,99.251 258.718,97.915 258.238,96.643 C257.758,95.372 257.119,94.258 256.320,93.305 C255.522,92.351 254.578,91.604 253.492,91.063 C252.405,90.524 251.255,90.253 250.040,90.253 C248.824,90.253 247.674,90.539 246.587,91.111 C245.501,91.683 244.558,92.446 243.759,93.400 C243.231,94.030 242.780,94.736 242.392,95.505 C242.186,96.711 242.052,97.775 242.052,98.470 L242.052,127.736 L241.123,127.736 L241.123,127.736 L226.816,127.736 L226.816,127.736 L226.571,127.736 L226.571,101.236 C226.571,99.838 226.285,98.502 225.713,97.230 C225.141,95.959 224.378,94.845 223.424,93.891 C222.470,92.938 219.548,90.759 215.286,90.759 C211.025,90.759 124.609,90.930 124.518,90.839 C124.427,90.749 117.054,91.360 113.931,101.426 L113.931,127.736 L99.625,127.736 L99.625,22.821 L113.931,22.821 L113.747,76.672 C113.931,76.782 285.100,76.672 289.827,76.672 C294.554,77.854 295.257,77.771 298.631,81.955 C298.592,81.955 298.499,81.959 298.385,81.965 C298.870,82.397 299.336,82.853 299.779,83.338 C301.496,85.214 302.846,87.391 303.833,89.871 C304.818,92.351 305.311,95.021 305.311,97.883 L305.311,127.736 L291.005,127.736 ZM268.605,84.406 C268.661,84.482 268.727,84.549 268.782,84.625 C268.860,84.536 268.951,84.457 269.031,84.370 C268.889,84.382 268.747,84.394 268.605,84.406 Z"/>
</svg>