<svg xmlns="http://www.w3.org/2000/svg" 
    xmlns:xlink="http://www.w3.org/1999/xlink" width="4.2in" height="2.347in" viewpoint="0 0 50 100">
    <path fill-rule="evenodd" fill="rgb(162, 64, 64)" d="M175.297,112.959 C175.279,110.739 165.301,105.053 141.569,102.787 C128.097,101.936 117.696,93.253 114.755,88.629 C109.894,80.999 110.551,68.527 114.404,61.084 C118.524,53.120 125.461,47.921 134.078,45.204 C137.757,44.045 153.845,39.617 169.423,49.139 C175.933,53.122 181.438,58.252 185.935,64.527 L168.369,76.473 C168.293,76.331 164.094,67.995 154.331,64.106 C146.834,61.119 137.123,63.050 134.074,67.453 C132.047,70.385 132.024,75.532 133.938,77.527 C133.344,76.905 137.159,83.610 150.670,85.655 C152.407,86.089 189.020,91.145 189.217,112.959 "/>
    <path fill-rule="evenodd" fill="rgb(162, 64, 64)" d="M136.913,145.690 C133.706,143.527 130.966,140.606 129.204,137.559 L113.304,146.955 C116.997,152.496 121.715,157.073 127.458,160.687 C140.638,169.521 157.094,165.512 160.576,164.782 C164.786,163.898 168.526,162.475 171.797,160.506 C167.397,164.699 145.248,166.106 136.913,145.690 Z"/>
    <path fill-rule="evenodd" fill="rgb(0, 91, 127)" d="M93.901,14.485 C79.812,11.227 43.571,54.892 70.750,100.250 C60.822,88.432 37.526,78.516 19.819,92.137 C35.598,77.078 51.686,67.668 55.702,52.732 C59.719,37.796 74.608,13.654 108.370,-0.002 C108.266,0.028 93.915,14.500 93.901,14.485 ZM39.553,88.408 C44.319,88.345 48.973,89.176 53.520,90.904 C58.065,92.630 62.092,95.251 65.605,98.767 C69.180,102.344 69.754,102.680 69.830,102.787 C69.829,102.783 69.750,102.857 69.636,102.967 C69.970,103.236 70.346,103.553 70.814,103.982 C74.388,107.561 77.037,111.655 78.761,116.271 C80.485,120.884 81.284,125.578 81.159,130.349 C81.033,135.119 80.014,139.812 78.103,144.427 C76.191,149.040 73.385,153.199 69.685,156.904 C65.923,160.671 61.738,163.478 57.130,165.332 C52.521,167.183 47.866,168.110 43.163,168.110 C41.740,168.110 40.330,168.000 38.927,167.836 C39.050,168.222 39.018,168.340 38.779,168.102 C22.673,167.027 -0.284,147.681 0.521,124.756 C0.918,121.763 1.663,118.804 2.753,115.879 C3.845,112.952 5.236,110.139 6.924,107.436 C8.614,104.732 10.586,102.251 12.843,99.991 C16.605,96.224 20.807,93.368 25.446,91.422 C30.085,89.475 34.789,88.470 39.553,88.408 ZM47.396,149.088 C50.908,148.585 54.073,146.923 56.894,144.098 C59.716,141.273 61.362,138.118 61.832,134.634 C62.302,131.150 61.973,127.836 60.845,124.699 L37.520,148.053 C40.592,149.244 43.885,149.590 47.396,149.088 ZM20.320,120.755 C19.034,123.799 18.548,126.608 18.862,129.183 C19.699,130.840 20.735,132.549 21.709,134.054 L46.325,109.408 C43.154,107.863 39.694,107.257 35.951,107.591 C32.209,107.922 28.770,109.658 25.634,112.798 C23.377,115.058 21.605,117.709 20.320,120.755 Z"/>
    <path fill-rule="evenodd" fill="rgb(0, 91, 127)" d="M258.814,160.071 C244.560,159.729 232.772,156.635 224.015,161.677 C215.258,166.719 197.221,170.984 175.297,161.677 C175.359,161.712 188.681,161.664 188.681,161.677 C193.693,169.699 230.624,166.290 239.006,132.767 C238.139,142.818 244.332,158.174 258.814,160.071 Z"/>
    <path fill-rule="evenodd" fill="rgb(255, 255, 255)" d="M175.299,114.119 L175.299,117.599 C173.395,116.053 171.313,114.788 169.053,113.807 C166.792,112.825 164.413,112.334 161.915,112.334 C158.583,112.334 155.431,112.974 152.457,114.253 C149.482,115.533 146.880,117.272 144.649,119.473 C142.419,121.674 140.648,124.277 139.340,127.280 C138.031,130.284 137.377,133.481 137.377,136.872 C137.377,140.204 138.016,143.356 139.296,146.330 C140.574,149.305 142.314,151.907 144.516,154.137 C146.716,156.368 149.319,158.123 152.323,159.402 C155.326,160.680 158.524,161.320 161.915,161.320 C164.413,161.320 166.792,160.825 169.053,159.838 C171.313,158.850 173.395,157.546 175.299,155.928 L175.299,159.536 L188.683,159.536 L188.683,114.119 L175.299,114.119 ZM158.480,148.208 C156.963,147.556 155.654,146.681 154.554,145.586 C153.452,144.490 152.575,143.185 151.922,141.673 C151.266,140.162 150.940,138.546 150.940,136.827 C150.940,135.110 151.266,133.494 151.922,131.982 C152.575,130.471 153.452,129.166 154.554,128.070 C155.654,126.975 156.963,126.100 158.480,125.448 C159.997,124.795 161.617,124.469 163.343,124.469 C165.007,124.469 166.600,124.795 168.116,125.448 C169.633,126.100 170.956,126.975 172.087,128.070 C173.216,129.166 174.109,130.471 174.764,131.982 C175.418,133.494 175.745,135.110 175.745,136.827 C175.745,138.546 175.418,140.162 174.764,141.673 C174.109,143.185 173.216,144.490 172.087,145.586 C170.956,146.681 169.633,147.556 168.116,148.208 C166.600,148.860 165.007,149.185 163.343,149.185 C161.617,149.185 159.997,148.860 158.480,148.208 Z"/>
    <path fill-rule="evenodd" fill="rgb(255, 255, 255)" d="M289.865,107.070 C289.825,107.295 290.115,106.223 290.115,104.781 C290.115,101.534 289.491,98.460 288.244,95.559 C286.996,92.660 285.286,90.122 283.111,87.947 C280.936,85.772 278.355,84.047 275.369,82.771 C272.381,81.496 269.148,80.857 265.668,80.857 C262.246,80.857 259.027,81.481 256.012,82.727 C252.996,83.975 250.357,85.672 248.095,87.817 C245.833,89.963 244.035,92.501 242.701,95.429 C241.366,98.358 240.700,101.475 240.700,104.781 C240.796,106.990 241.117,107.088 241.147,107.070 C241.145,107.073 241.149,107.076 241.158,107.079 C240.975,107.159 289.865,107.070 289.865,107.070 ZM272.367,94.777 C274.223,96.168 275.586,97.851 276.456,99.822 L254.881,99.822 C255.808,97.851 257.186,96.168 259.013,94.777 C260.840,93.385 263.059,92.689 265.668,92.689 C268.278,92.689 270.510,93.385 272.367,94.777 Z"/>
    <path fill-rule="evenodd" fill="rgb(255, 255, 255)" d="M241.147,132.232 C241.133,132.317 240.699,132.526 240.700,135.832 C240.701,139.081 241.353,142.155 242.658,145.054 C243.963,147.955 245.731,150.491 247.965,152.666 C250.197,154.841 252.836,156.553 255.881,157.799 C258.926,159.046 262.189,159.670 265.668,159.670 C267.756,159.670 269.814,159.436 271.845,158.968 C273.875,158.501 275.817,157.844 277.674,156.997 C279.530,156.150 281.241,155.128 282.807,153.929 C284.373,152.732 285.735,151.374 286.896,149.854 L276.369,143.401 C275.325,144.736 273.803,145.809 271.802,146.620 C269.801,147.433 267.756,147.838 265.668,147.838 C262.768,147.838 260.375,147.050 258.491,145.471 C256.606,143.895 255.286,142.015 254.533,139.834 L289.767,139.834 C289.882,139.197 289.969,138.529 290.028,137.833 C290.085,137.137 290.115,136.471 290.115,135.832 C290.115,132.585 289.771,132.191 289.865,132.232 C289.803,132.155 241.116,132.300 241.147,132.232 Z"/>
    <path fill-rule="evenodd" fill="rgb(255, 255, 255)" d="M376.598,159.536 L376.598,134.829 C376.598,133.554 376.381,132.336 375.946,131.175 C375.511,130.015 374.930,129.000 374.206,128.130 C373.480,127.260 372.625,126.579 371.639,126.085 C370.653,125.593 369.609,125.346 368.508,125.346 C367.405,125.346 366.361,125.607 365.376,126.129 C364.389,126.651 363.534,127.347 362.809,128.217 C362.083,129.087 361.504,130.102 361.069,131.262 C360.634,132.423 360.417,133.669 360.417,135.003 L360.417,159.536 L347.367,159.536 L347.367,134.829 C347.367,133.554 347.148,132.336 346.711,131.175 C346.273,130.015 345.690,129.000 344.961,128.130 C344.233,127.260 343.372,126.579 342.381,126.085 C341.390,125.593 340.341,125.346 339.233,125.346 C338.124,125.346 337.074,125.607 336.084,126.129 C335.093,126.651 334.232,127.347 333.504,128.217 C333.022,128.792 332.611,129.436 332.256,130.137 C332.069,131.237 331.946,132.207 331.946,132.841 L331.946,159.536 L331.099,159.536 L331.099,159.536 L318.049,159.536 L318.049,159.536 L317.826,159.536 L317.826,135.364 C317.826,134.089 317.565,132.871 317.043,131.710 C316.521,130.551 315.825,129.535 314.955,128.665 C314.085,127.795 311.419,125.808 307.533,125.808 C303.646,125.808 224.822,125.964 224.739,125.881 C224.657,125.799 217.931,126.356 215.083,135.538 L215.083,159.536 L202.033,159.536 L202.033,63.839 L215.083,63.839 L214.914,112.959 C215.083,113.059 371.212,112.959 375.524,112.959 C379.836,114.037 380.477,113.961 383.555,117.777 C383.519,117.777 383.434,117.781 383.330,117.787 C383.772,118.181 384.197,118.597 384.602,119.039 C386.168,120.750 387.400,122.736 388.299,124.998 C389.198,127.260 389.648,129.696 389.648,132.306 L389.648,159.536 L376.598,159.536 ZM356.167,120.013 C356.218,120.083 356.278,120.143 356.328,120.213 C356.399,120.132 356.483,120.060 356.555,119.980 C356.426,119.991 356.296,120.002 356.167,120.013 Z"/>
</svg>